{"title":"The Judge 2014 720p HDCAM FIRST ENGLISH x264 Pimp4003","uid":11240921,"size":2362498587,"categoryP":"video","categoryS":"movies","magnet":"?xt=urn:btih:f3494a2a8d2f64c9ac9aa0ed3b4a684eaec889ed&amp;dn=The+Judge+2014+720p+HDCAM+FIRST+ENGLISH+x264+Pimp4003&amp;tr=udp%3A%2F%2Ftracker.openbittorrent.com%3A80&amp;tr=udp%3A%2F%2Fopen.demonii.com%3A1337&amp;tr=udp%3A%2F%2Ftracker.coppersurfer.tk%3A6969&amp;tr=udp%3A%2F%2Fexodus.desync.com%3A6969","seeders":19,"leechers":0,"uploader":"shawnmurthy","files":-1,"time":1413673029,"description":"PIMP4003 PROUDLY PRESENTS....A PIMP4003 EXCLUSIVE\n &lt;a href=&quot;\nhttp://i.imgur.com/fW5GLTr.jpg&quot; rel=&quot;nofollow&quot; target=&quot;_NEW&quot;&gt;\nhttp://i.imgur.com/fW5GLTr.jpg&lt;/a&gt;\n\nSOURCE IS PIMP4003....FIRST CAM BY ME NOT BAD VIDEO AND AUDIO IS PRETTY GOOD....DID SOME TOUCHES HERE AND THERE....LOOKS LIKE MY SOURCE DID A LITTLE BETTER JOB IN RECORDING THIS.......ENJOY.....PIMP4003\n &lt;a href=&quot;\nhttp://i.imgur.com/J7f46bv.jpg&quot; rel=&quot;nofollow&quot; target=&quot;_NEW&quot;&gt;\nhttp://i.imgur.com/J7f46bv.jpg&lt;/a&gt;\n\nFOR REQUESTS, EXCLUSIVE MOVIES AND SUPER FAST SPEEDS AND FOR SCREENSHOTS AND SAMPLE....CLICK BELOW LINK\n\nThe Judge 2014 720p HDCAM FIRST ENGLISH x264 Pimp4003\n\nENJOY\n\nPIMP4003\n\nVideo\nID                                       : 1\nFormat                                   : MPEG-4 Visual\nFormat profile                           : Simple@L3\nFormat settings, BVOP                    : No\nFormat settings, QPel                    : No\nFormat settings, GMC                     : No warppoints\nFormat settings, Matrix                  : Default (H.263)\nCodec ID                                 : 20\nDuration                                 : 2h 4mn\nBit rate                                 : 2 394 Kbps\nWidth                                    : 1 280 pixels\nHeight                                   : 536 pixels\nDisplay aspect ratio                     : 2.40:1\nFrame rate mode                          : Variable\nFrame rate                               : 59.940 fps\nMinimum frame rate                       : 59.916 fps\nMaximum frame rate                       : 60.157 fps\nColor space                              : YUV\nChroma subsampling                       : 4:2:0\nBit depth                                : 8 bits\nScan type                                : Progressive\nCompression mode                         : Lossy\nBits/(Pixel*Frame)                       : 0.058\nStream size                              : 2.08 GiB (95%)\nWriting library                          : ZJMedia MPEG Encoder\n\nAudio\nID                                       : 2\nFormat                                   : AAC\nFormat/Info                              : Advanced Audio Codec\nFormat profile                           : LC\nCodec ID                                 : 40\nDuration                                 : 2h 4mn\nBit rate mode                            : Variable\nBit rate                                 : 128 Kbps\nChannel(s)                               : 2 channels\nChannel positions                        : Front: L R\nSampling rate                            : 48.0 KHz\nCompression mode                         : Lossy\nStream size                              : 114 MiB (5%)\n &lt;a href=&quot;\nhttp://i.imgur.com/Hj05eJ3.png&quot; rel=&quot;nofollow&quot; target=&quot;_NEW&quot;&gt;\nhttp://i.imgur.com/Hj05eJ3.png&lt;/a&gt; &lt;a href=&quot;\nhttp://i.imgur.com/Wg5rmHK.png&quot; rel=&quot;nofollow&quot; target=&quot;_NEW&quot;&gt;\nhttp://i.imgur.com/Wg5rmHK.png&lt;/a&gt; &lt;a href=&quot;\nhttp://i.imgur.com/T5K6bon.png&quot; rel=&quot;nofollow&quot; target=&quot;_NEW&quot;&gt;\nhttp://i.imgur.com/T5K6bon.png&lt;/a&gt;","torrent":{"xt":"urn:btih:f3494a2a8d2f64c9ac9aa0ed3b4a684eaec889ed","amp;dn":"The+Judge+2014+720p+HDCAM+FIRST+ENGLISH+x264+Pimp4003","amp;tr":["udp%3A%2F%2Ftracker.openbittorrent.com%3A80","udp%3A%2F%2Fopen.demonii.com%3A1337","udp%3A%2F%2Ftracker.coppersurfer.tk%3A6969","udp%3A%2F%2Fexodus.desync.com%3A6969"],"infoHash":"f3494a2a8d2f64c9ac9aa0ed3b4a684eaec889ed","infoHashBuffer":{"type":"Buffer","data":[243,73,74,42,141,47,100,201,172,154,160,237,59,74,104,78,174,200,137,237]},"announce":[],"urlList":[]}}